# xmcd CD database file
#
# Track frame offsets:
#	150
#	18418
#	36460
#	51367
#	61517
#	73258
#	85000
#	97078
#	107735
#	121821
#	132758
#	143675
#	154266
#	175184
#	191618
#	202623
#	219363
#	234330
#	251416
#	268752
#	281099
#	292964
#	305572
#	321737
#	336117
#
# Disc length: 4636 seconds
#
# Revision: 1
# Processed by: cddbd v1.5.2PL0 Copyright (c) Steve Scherf et al.
# Submitted via: CDex 1.51
#
DISCID=71121a19
DTITLE=diverse gibson, brenn hill - country mix 1
DYEAR=1900
DGENRE=Country
TTITLE0=brenn hill4
TTITLE1=undert.7
TTITLE2=gibson5
TTITLE3=brother1
TTITLE4=gibson8
TTITLE5=brenn hill7
TTITLE6=gibson7
TTITLE7=bother1
TTITLE8=gibson11
TTITLE9=dobson15
TTITLE10=undert.1
TTITLE11=gibson11
TTITLE12=dobson4
TTITLE13=brenn hill8
TTITLE14=dobson14
TTITLE15=gibson7
TTITLE16=undert.8
TTITLE17=brenn hill11
TTITLE18=gibson13
TTITLE19=undert.5
TTITLE20=dobson9
TTITLE21=brenn hill12
TTITLE22=undert.9
TTITLE23=gibson9
TTITLE24=gibson5
EXTD=
EXTT0=
EXTT1=
EXTT2=
EXTT3=
EXTT4=
EXTT5=
EXTT6=
EXTT7=
EXTT8=
EXTT9=
EXTT10=
EXTT11=
EXTT12=
EXTT13=
EXTT14=
EXTT15=
EXTT16=
EXTT17=
EXTT18=
EXTT19=
EXTT20=
EXTT21=
EXTT22=
EXTT23=
EXTT24=
PLAYORDER=
